<svg id="Layer_1" data-name="Layer 1" xmlns="http://www.w3.org/2000/svg" viewBox="0 0 287 241"><defs><style>.cls-1{fill:#7dc6de;fill-rule:evenodd;}.cls-2{font-size:38.26px;fill:#53bae3;font-family:Arial-BoldMT, Arial;font-weight:700;}</style></defs><title>Artboard 1</title><path class="cls-1" d="M121.25,102.82H116c-4.84,0-5.85-6.65.11-6.77,2,0,4.31.21,6.66.19l1.88,0A30.92,30.92,0,0,0,144,90c6.17-4.7,8-10.55,8-18a21.79,21.79,0,0,0-6.19-14.14,21.38,21.38,0,0,0-12-6.47c-1.54-.06-3.6-.12-5.65-.15H116c-4.84,0-5.86-6.65.11-6.77,6.18-.12,15.11-.26,19.77.09l4.4.58a32.19,32.19,0,0,1,15.78,9,23.65,23.65,0,0,1,2,2.26c8.08-11.94,24.53-15.75,38.17-13.06,25.87,7.31,34.94,27.15,34.54,54.2a87.52,87.52,0,1,1-34.91-70c.48.36.95.72,1.41,1.09,3,2.56.07,6.83-3.75,4.62-2.31-1.33-4.37-2.61-6.6-3.83a80.89,80.89,0,1,0,37.2,68.08c0-24.93-8.73-47.44-37.42-48a25.31,25.31,0,0,0-17.32,6.92c-3.91,3.91-5.2,8.31-5.2,13.8a13.54,13.54,0,0,0,3.48,9.31,38.06,38.06,0,0,0,7.61,6.61c1.51,1,3,1.78,4.33,2.49s2.58,1.3,3.63,1.78c.76.37,1.49.75,2.2,1.13s1.44.76,2.2,1.14c15.88,8,25.64,17.23,25.09,32.87-.43,12.56-6.8,20.29-18,24-13.45,4.42-26.66,1.49-35.48-7.31-3.78-3.76-7.61-7.87-11.59-12.22a1.08,1.08,0,0,0-.28-.22.22.22,0,0,1-.14-.21c-.86-.85-1.66-1.7-2.42-2.56l-2.27-2.55-16-17c-3-3.25-3.72-4.26-5.35-4.65m14.19-1.34L151.22,119q2.55,3,4.76,5.47l4.33,4.9a17.51,17.51,0,0,0,1.21,1.36,14.19,14.19,0,0,1,1.21,1.35q1.71,1.85,3.62,3.7t4.06,4c4.07,3.63,7,4.49,12.37,4.49a23.32,23.32,0,0,0,14.86-5.12A15.56,15.56,0,0,0,204,126c0-4.68-1.43-9.41-5-12.58a54.11,54.11,0,0,0-11-7.32c-1.23-.66-2.49-1.32-3.77-2s-2.58-1.38-3.91-2.13c-1.7-1-3.34-1.85-4.9-2.7s-3.11-1.71-4.62-2.56A47.53,47.53,0,0,1,159.45,88c-.29.41-.59.78-.91,1.16a33.78,33.78,0,0,1-10.45,8.38A38.4,38.4,0,0,1,143,99.63,44.74,44.74,0,0,1,135.44,101.48Z"/><text class="cls-2" transform="translate(25.01 222.48) scale(1 1.04)">r</text><text class="cls-2" transform="translate(48.3 222.48) scale(1 1.04)">e</text><text class="cls-2" transform="translate(78.03 222.48) scale(1 1.04)">s</text><text class="cls-2" transform="translate(107.7 222.48) scale(1 1.04)">t</text><text class="cls-2" transform="translate(128.84 222.48) scale(1 1.04)">s</text><text class="cls-2" transform="translate(158.53 222.48) scale(1 1.04)">c</text><text class="cls-2" transform="translate(188.2 222.48) scale(1 1.04)">e</text><text class="cls-2" transform="translate(217.9 222.48) scale(1 1.04)">n</text><text class="cls-2" transform="translate(249.72 222.48) scale(1 1.04)">e</text></svg>