<svg id="Layer_1" data-name="Layer 1" xmlns="http://www.w3.org/2000/svg" xmlns:xlink="http://www.w3.org/1999/xlink" viewBox="0 0 299 369"><defs><style>.cls-1,.cls-2{fill:#3cb8f1;}.cls-1{fill-rule:evenodd;}.cls-3{font-size:24.02px;fill:#6d6e71;font-family:AgencyFB-Bold, Agency FB;font-weight:700;}.cls-4{fill:url(#linear-gradient);}</style><linearGradient id="linear-gradient" x1="37.89" y1="35.92" x2="90.2" y2="35.92" gradientUnits="userSpaceOnUse"><stop offset="0" stop-color="#3db5ec"/><stop offset="1" stop-color="#2d99db"/></linearGradient></defs><title>Artboard 5</title><polygon class="cls-1" points="224.68 317.42 224.68 288.23 231.75 288.23 231.75 299.32 253.6 299.32 253.6 288.23 260.6 288.23 260.6 317.42 253.6 317.42 253.6 305.12 231.75 305.12 231.75 317.42 224.68 317.42"/><path class="cls-1" d="M206.11,293.59H187.24v18.24h18.87v-6.2l7.07,1.45v3.44c0,2.64-.52,4.46-1.56,5.44s-3,1.46-6,1.46H187.71q-4.35,0-5.9-1.45c-1-1-1.56-2.78-1.56-5.45V295.11c0-2.66.51-4.46,1.54-5.43s3-1.45,5.92-1.45h17.94c3,0,5,.48,6,1.45s1.54,2.77,1.54,5.43v2.83L206.11,299Z"/><rect class="cls-2" x="161.17" y="288.23" width="6.96" height="29.19"/><path class="cls-2" d="M139,306.36h3.94c2.36,0,4.09-.44,5.14-1.31a5.29,5.29,0,0,0,1.59-4.29V293.9a5.37,5.37,0,0,0-1.59-4.34c-1-.88-2.78-1.33-5.14-1.33H117v29.19h6.89V306.36h6.61l12,11.06h10.05Zm-15-5v-8.07h16a4.2,4.2,0,0,1,2.5.54,2.15,2.15,0,0,1,.68,1.82V299a2.14,2.14,0,0,1-.68,1.81,4.2,4.2,0,0,1-2.5.54Z"/><polygon class="cls-1" points="75.74 317.42 75.74 288.23 106.56 288.23 106.56 293.38 82.81 293.38 82.81 299.75 96.64 299.75 96.64 304.77 82.81 304.77 82.81 311.95 106.92 311.95 106.92 317.42 75.74 317.42"/><polygon class="cls-1" points="38.78 317.77 38.78 288.43 67.98 288.43 67.98 293.57 45.5 293.57 45.5 301.29 57.66 301.29 57.66 306.64 45.5 306.64 45.5 317.77 38.78 317.77"/><text class="cls-3" transform="translate(36.55 346.87) scale(1.77 1)">H</text><text class="cls-3" transform="translate(73.58 346.87) scale(1.77 1)">O</text><text class="cls-3" transform="translate(110.69 346.87) scale(1.77 1)">L</text><text class="cls-3" transform="translate(143.19 346.87) scale(1.77 1)">D</text><text class="cls-3" transform="translate(179.99 346.87) scale(1.77 1)">I</text><text class="cls-3" transform="translate(205.75 346.87) scale(1.77 1)">N</text><text class="cls-3" transform="translate(242.96 346.87) scale(1.77 1)">G</text><polygon class="cls-4" points="37.89 22.13 37.89 49.71 90.2 22.13 37.89 22.13"/><path class="cls-2" d="M174.16,22.73a26.72,26.72,0,0,1-10.19,9L63.59,84.68c-10.77,5.45-19.51,7.63-26.41,7.62V265.76h225v-243Zm-17,226.13c-10.46,7.13-26.89,3.24-29.49-.81l-42.95-67c-7.19-19.48,34.49-35.09,44.16-20L166,218.92C174.42,233,167.45,243.46,157.16,248.86ZM182.81,97.68,95.14,142.16c-21.14,10.22-33.88,5.2-39.48-3.5-8-8.57.49-24.55,6.59-27.65l100.93-51.2C191.57,49.86,205.54,86.16,182.81,97.68Z"/></svg>