<svg id="Layer_1" data-name="Layer 1" xmlns="http://www.w3.org/2000/svg" viewBox="0 0 261 204"><defs><style>.cls-1{font-size:15.23px;font-family:ArialNarrow-Bold, Arial;font-weight:700;}.cls-2{fill:none;}.cls-3,.cls-5{fill-rule:evenodd;}.cls-4,.cls-5{fill:#81d0f7;}.cls-6{font-size:12.46px;fill:#aeb0b3;font-family:ArialMT, Arial;}</style></defs><title>Artboard 3</title><text class="cls-1" transform="translate(21.02 177.86)">Q</text><text class="cls-1" transform="translate(46.87 178.25)">U</text><text class="cls-1" transform="translate(74.27 178.25)">E</text><text class="cls-1" transform="translate(100.99 178.25)">S</text><text class="cls-1" transform="translate(127.71 178.25)">T</text><text class="cls-1" transform="translate(153.77 178.25)">M</text><text class="cls-1" transform="translate(182.56 178.25)">A</text><text class="cls-1" transform="translate(209.98 178.25)">R</text><text class="cls-1" transform="translate(237.4 178.25)">T</text><polygon class="cls-2" points="242.12 178.26 242.12 169.2 244.76 169.2 244.76 167.35 237.66 167.35 237.66 169.2 240.32 169.2 240.32 178.26 242.12 178.26"/><path d="M103.17,111.61,89.82,105v-1.73c4.73,1.62,9.1,4.66,13.35,8.36m-4.65,46.57c-7,.57-14.71.71-22.49.68H73.65c-12.36,0-25.18-.47-36.46-.47C26,157.32,19.38,147.87,19.38,135V55.31C19.38,39.62,26.5,24,41.29,24h51.6c14.54,0,22.18,15.9,22.18,31.56v52c-8-4.9-15.85-9.5-25.25-10.71v-17h0q0-7,0-14v-.23C89.69,57.3,88.14,47.19,76.6,46.5l-8.26,0H68l-9.85,0c-8.27.06-14,5.39-14,16.63v59.38c-.21,7.45,3.12,9.87,9.38,10.53,10.38,0,20.75.09,31.13.12a9.86,9.86,0,0,0,2.23-.74c2.21-1.21,3-4.37,3-6.7V113c9.05,4,16.88,13,25.22,21.13v1.1c0,11.94-6.32,22.14-16.55,23"/><path d="M148.86,149.78v8.88H124.22V142.23c6.13,4.7,12.78,8,20.52,8a19.83,19.83,0,0,0,4.12-.46m22.78,8.88V58.44c0-18.29-22.78-22.63-22.78,0v62.92c-9.49-.66-17.33-4.14-24.64-8.29V49.41q0-13.42,10.75-21c7.09-5.2,14.77-6.4,23-6.25,9.35-.31,19.52.56,26.34,8.43,7.16-8.25,17.88-8.76,27.64-8.43,7.91-.14,15,1.36,21.69,6.25q10.75,7.6,10.75,21V158.66H219.73V58.44c0-22.63-22.78-18.29-22.78,0V158.66Z"/><path class="cls-3" d="M155.2,144.19a24.44,24.44,0,0,1-8.42,1.74c-24.09,0-37.65-32-57.58-38.26a54.8,54.8,0,0,0-10.27-2.36v-3.7C107,97.28,120.72,124,148.86,126c6.7.46,9.61-.51,15.25-3-.72,1.64-7.6,18.13-8.91,21.23"/><path class="cls-4" d="M101.79,109.84l-13.35-6.63v-1.73c4.72,1.62,9.09,4.66,13.34,8.36m-4.64,46.57c-7.05.57-14.71.71-22.5.68H72.28c-12.36,0-25.19-.47-36.46-.47C24.64,155.55,18,146.1,18,133.25V53.54c0-15.69,7.12-31.36,21.91-31.36h51.6c14.54,0,22.18,15.9,22.18,31.56v52c-8-4.9-15.85-9.5-25.24-10.71V78h0q0-7,0-14V63.8c-.14-8.27-1.68-18.38-13.23-19.08H66.64c-3.29,0-6.57,0-9.85,0-8.27.06-14,5.39-14,16.63v59.38c-.21,7.45,3.12,9.87,9.39,10.53,10.37,0,20.75.09,31.12.12a10.09,10.09,0,0,0,2.24-.74c2.2-1.21,3-4.37,3-6.7V111.21c9,4,16.89,13,25.22,21.13v1.1c0,11.94-6.32,22.14-16.54,23"/><path class="cls-4" d="M147.48,148v8.88H122.84V140.46c6.13,4.7,12.78,8,20.52,8a19.76,19.76,0,0,0,4.12-.46m22.79,8.88V56.67c0-18.29-22.79-22.63-22.79,0v62.92c-9.49-.66-17.33-4.14-24.64-8.29V47.64q0-13.43,10.75-21c7.09-5.21,14.77-6.4,23-6.25,9.35-.31,19.52.56,26.35,8.43,7.16-8.25,17.88-8.76,27.64-8.43,7.9-.14,15,1.36,21.68,6.25q10.75,7.6,10.75,21V156.89H218.35V56.67c0-22.63-22.78-18.29-22.78,0V156.89Z"/><path class="cls-5" d="M153.83,142.42a24.5,24.5,0,0,1-8.43,1.74c-24.08,0-37.65-32-57.58-38.26a54.88,54.88,0,0,0-10.26-2.36v-3.7c28.1-4.33,41.78,22.41,69.92,24.37,6.7.46,9.61-.51,15.26-3-.72,1.65-7.61,18.14-8.91,21.24"/><text class="cls-6" transform="translate(57.88 126.84) rotate(-90)">W</text><text class="cls-6" transform="translate(57.88 107.78) rotate(-90)">O</text><text class="cls-6" transform="translate(57.88 90.79) rotate(-90)">R</text><text class="cls-6" transform="translate(57.88 74.49) rotate(-90)">L</text><text class="cls-6" transform="translate(57.88 60.23) rotate(-90)">D</text></svg>