<svg id="Layer_1" data-name="Layer 1" xmlns="http://www.w3.org/2000/svg" xmlns:xlink="http://www.w3.org/1999/xlink" viewBox="0 0 359 235"><defs><style>.cls-1{fill:#6e6f72;}.cls-2{fill:#8e0d19;}.cls-3{fill:#740b14;}.cls-4{fill:url(#linear-gradient);}.cls-5{fill:url(#linear-gradient-2);}.cls-6{fill:url(#linear-gradient-3);}.cls-7{fill:url(#linear-gradient-4);}.cls-8{fill:url(#linear-gradient-5);}.cls-9{fill:url(#linear-gradient-6);}.cls-10{fill:url(#linear-gradient-7);}</style><linearGradient id="linear-gradient" x1="286.06" y1="164.51" x2="332.47" y2="164.51" gradientUnits="userSpaceOnUse"><stop offset="0" stop-color="#7e1d18"/><stop offset="1" stop-color="#e00a2d"/></linearGradient><linearGradient id="linear-gradient-2" x1="259.8" y1="168.21" x2="261.27" y2="25.81" gradientUnits="userSpaceOnUse"><stop offset="0" stop-color="#a9161d"/><stop offset="0.66" stop-color="#e00a2d"/></linearGradient><linearGradient id="linear-gradient-3" x1="103.03" y1="122.35" x2="194.91" y2="122.35" xlink:href="#linear-gradient"/><linearGradient id="linear-gradient-4" x1="218.64" y1="164.76" x2="265.97" y2="161.52" gradientUnits="userSpaceOnUse"><stop offset="0" stop-color="#7e1d18"/><stop offset="0.03" stop-color="#841c19"/><stop offset="0.21" stop-color="#a51520"/><stop offset="0.39" stop-color="#bf1026"/><stop offset="0.58" stop-color="#d10d2a"/><stop offset="0.78" stop-color="#dc0b2c"/><stop offset="1" stop-color="#e00a2d"/></linearGradient><linearGradient id="linear-gradient-5" x1="34.4" y1="100.34" x2="242.36" y2="100.34" xlink:href="#linear-gradient-2"/><linearGradient id="linear-gradient-6" x1="129.66" y1="146.29" x2="66.27" y2="92.98" gradientUnits="userSpaceOnUse"><stop offset="0" stop-color="#a9161d"/><stop offset="0.94" stop-color="#e00a2d"/></linearGradient><linearGradient id="linear-gradient-7" x1="96.23" y1="161.27" x2="157.77" y2="176.7" xlink:href="#linear-gradient-4"/></defs><title>Artboard 2</title><path class="cls-1" d="M41.85,179.77a.63.63,0,0,1,.43.13.47.47,0,0,1,.19.3L45.88,205a.42.42,0,0,1-.17.37.94.94,0,0,1-.64.17H43.55a2.4,2.4,0,0,1-1.28-.31,1.1,1.1,0,0,1-.58-.78l-.31-3.51H38.81l-.31,3.51a1.1,1.1,0,0,1-.58.78,2.4,2.4,0,0,1-1.28.31H35.12a.94.94,0,0,1-.64-.17.39.39,0,0,1-.17-.37l3.41-24.77a.47.47,0,0,1,.19-.3.63.63,0,0,1,.43-.13ZM39,198.47h2.15l-1.09-12.42Z"/><path class="cls-1" d="M71.88,193.67a.71.71,0,0,1,.47.13.39.39,0,0,1,.15.32v8a3.11,3.11,0,0,1-1.57,2.75,8.08,8.08,0,0,1-4.39,1,10.23,10.23,0,0,1-2.45-.26,6.1,6.1,0,0,1-1.87-.75A3.6,3.6,0,0,1,61,203.67a2.94,2.94,0,0,1-.42-1.56V183.17a3.12,3.12,0,0,1,1.56-2.75,8.13,8.13,0,0,1,4.39-1,10.26,10.26,0,0,1,2.44.26,6.22,6.22,0,0,1,1.89.75,3.6,3.6,0,0,1,1.21,1.18,2.94,2.94,0,0,1,.42,1.56v8.27a.43.43,0,0,1-.15.33.77.77,0,0,1-.47.13H70.14a2.13,2.13,0,0,1-1.35-.36,1.14,1.14,0,0,1-.45-.93v-7.44a1.17,1.17,0,0,0-.43-.95,2.75,2.75,0,0,0-2.72,0,1.16,1.16,0,0,0-.45.95v18.94a1.18,1.18,0,0,0,.44.95,2.11,2.11,0,0,0,1.36.36,2.13,2.13,0,0,0,1.35-.36,1.16,1.16,0,0,0,.45-.95v-6c-1.24,0-1.86-.42-1.86-1.27v-.74a.37.37,0,0,1,.19-.33.92.92,0,0,1,.46-.1Z"/><path class="cls-1" d="M88,180.88a.92.92,0,0,1,.5-.81,2.48,2.48,0,0,1,1.3-.3h1.74a.71.71,0,0,1,.47.13.39.39,0,0,1,.15.32v24.51a.69.69,0,0,1-.32.56,1.39,1.39,0,0,1-.8.22H89.13a1.36,1.36,0,0,1-.79-.22.68.68,0,0,1-.33-.56Z"/><path class="cls-1" d="M108.3,205.51a.68.68,0,0,1-.46-.13.38.38,0,0,1-.16-.32V180.22a.38.38,0,0,1,.16-.32.68.68,0,0,1,.46-.13H110a2.48,2.48,0,0,1,1.3.3.92.92,0,0,1,.5.81v22.19h3.82a1.78,1.78,0,0,1,1.14.35,1.12,1.12,0,0,1,.44.92v.74a.37.37,0,0,1-.19.33.92.92,0,0,1-.46.1Z"/><path class="cls-1" d="M140.79,179.77a.92.92,0,0,1,.46.1.37.37,0,0,1,.19.33v.74a1.14,1.14,0,0,1-.43.92,1.81,1.81,0,0,1-1.15.35H136v9.36h4.13a.92.92,0,0,1,.46.11.35.35,0,0,1,.19.33v.74a1.14,1.14,0,0,1-.44.92,1.78,1.78,0,0,1-1.14.34H136v9.06h3.82a1.81,1.81,0,0,1,1.15.35,1.14,1.14,0,0,1,.43.92v.74a.37.37,0,0,1-.19.33.92.92,0,0,1-.46.1H132.5a.68.68,0,0,1-.46-.13.38.38,0,0,1-.16-.32V180.22a.38.38,0,0,1,.16-.32.68.68,0,0,1,.46-.13Z"/><path class="cls-1" d="M170.61,184.22a13.31,13.31,0,0,1,.52-2.39,4.47,4.47,0,0,1,.69-1.34,1.61,1.61,0,0,1,.8-.59,2.91,2.91,0,0,1,.87-.13h2.36a.71.71,0,0,1,.47.13.39.39,0,0,1,.15.32v24.84a.39.39,0,0,1-.15.32.71.71,0,0,1-.47.13h-1.74a2.18,2.18,0,0,1-1.36-.36,1,1,0,0,1-.44-.92l.93-16.59-2.88,16.78c0,.31-.28.57-.71.78a3.25,3.25,0,0,1-1.43.31h-.06a3.22,3.22,0,0,1-1.43-.31c-.44-.21-.67-.47-.71-.78L163.1,187.6l.93,16.63a1,1,0,0,1-.43.92,2.22,2.22,0,0,1-1.37.36h-1.74a.68.68,0,0,1-.46-.13.38.38,0,0,1-.16-.32V180.22a.38.38,0,0,1,.16-.32.68.68,0,0,1,.46-.13h2.11a3.26,3.26,0,0,1,.87.12,1.64,1.64,0,0,1,.81.57,4.68,4.68,0,0,1,.68,1.35,13.07,13.07,0,0,1,.53,2.41l2.7,13.66Z"/><path class="cls-1" d="M198.75,179.77a.63.63,0,0,1,.43.13.47.47,0,0,1,.19.3L202.78,205a.42.42,0,0,1-.17.37.94.94,0,0,1-.64.17h-1.52a2.4,2.4,0,0,1-1.28-.31,1.1,1.1,0,0,1-.58-.78l-.31-3.51h-2.57l-.31,3.51a1.1,1.1,0,0,1-.58.78,2.4,2.4,0,0,1-1.28.31H192a.93.93,0,0,1-.63-.17.39.39,0,0,1-.17-.37l3.41-24.77a.47.47,0,0,1,.19-.3.63.63,0,0,1,.43-.13Zm-2.83,18.7h2.14L197,186.05Z"/><path class="cls-1" d="M227,188.78a2.13,2.13,0,0,1-1.35-.36,1.14,1.14,0,0,1-.45-.93v-4.32a1.16,1.16,0,0,0-.45-.95,2.13,2.13,0,0,0-1.35-.36,2.11,2.11,0,0,0-1.36.36,1.18,1.18,0,0,0-.44.95,12.32,12.32,0,0,0,.33,3.05,9.18,9.18,0,0,0,.88,2.27,10.77,10.77,0,0,0,1.26,1.77l1.41,1.57c.48.53.95,1.08,1.41,1.67a10.36,10.36,0,0,1,1.26,2.07,12.79,12.79,0,0,1,.89,2.78,19.45,19.45,0,0,1,.32,3.76,2.94,2.94,0,0,1-.42,1.56,3.6,3.6,0,0,1-1.21,1.18,6.22,6.22,0,0,1-1.89.75,10.26,10.26,0,0,1-2.44.26,8.13,8.13,0,0,1-4.39-1,3.12,3.12,0,0,1-1.56-2.75v-5.37a.43.43,0,0,1,.15-.33.77.77,0,0,1,.47-.13h1.73a2.13,2.13,0,0,1,1.35.36,1.14,1.14,0,0,1,.45.93v4.54a1.16,1.16,0,0,0,.45.95,2.75,2.75,0,0,0,2.72,0,1.17,1.17,0,0,0,.43-.95,17.46,17.46,0,0,0-.32-3.58A10.22,10.22,0,0,0,224,196a9.45,9.45,0,0,0-1.25-1.88q-.71-.79-1.41-1.53c-.48-.48-1-1-1.42-1.51a9.58,9.58,0,0,1-1.25-1.86,10.11,10.11,0,0,1-.89-2.51,16.67,16.67,0,0,1-.32-3.51,2.94,2.94,0,0,1,.42-1.56,3.6,3.6,0,0,1,1.21-1.18,6.1,6.1,0,0,1,1.87-.75,10.23,10.23,0,0,1,2.45-.26,8.08,8.08,0,0,1,4.39,1,3.11,3.11,0,0,1,1.57,2.75v5.15a.43.43,0,0,1-.15.33.77.77,0,0,1-.47.13Z"/><path class="cls-1" d="M254.56,179.77a1,1,0,0,1,.47.1.38.38,0,0,1,.18.33v.74a1.11,1.11,0,0,1-.43.92,1.79,1.79,0,0,1-1.15.35h-1.92v22.52a.68.68,0,0,1-.33.56,1.36,1.36,0,0,1-.79.22h-1.92a1.34,1.34,0,0,1-.79-.22.68.68,0,0,1-.33-.56V182.21h-1.92a1.79,1.79,0,0,1-1.15-.35,1.12,1.12,0,0,1-.44-.92v-.74a.39.39,0,0,1,.19-.33.94.94,0,0,1,.47-.1Z"/><path class="cls-1" d="M277.83,179.77a1,1,0,0,1,.47.1.38.38,0,0,1,.18.33v.74a1.11,1.11,0,0,1-.43.92,1.79,1.79,0,0,1-1.15.35h-3.82v9.36h4.13a1,1,0,0,1,.47.11.35.35,0,0,1,.18.33v.74a1.13,1.13,0,0,1-.43.92,1.79,1.79,0,0,1-1.15.34h-3.2v9.06h3.82a1.79,1.79,0,0,1,1.15.35,1.11,1.11,0,0,1,.43.92v.74a.38.38,0,0,1-.18.33,1,1,0,0,1-.47.1h-8.28a.71.71,0,0,1-.47-.13.39.39,0,0,1-.15-.32V180.22a.39.39,0,0,1,.15-.32.71.71,0,0,1,.47-.13Z"/><path class="cls-1" d="M299.15,179.77a10.07,10.07,0,0,1,2.42.27,6.57,6.57,0,0,1,1.86.75,3.45,3.45,0,0,1,1.19,1.18,2.93,2.93,0,0,1,.42,1.55v7.94a2.27,2.27,0,0,1-.54,1.57,3.7,3.7,0,0,1-1.51,1,3.92,3.92,0,0,1,1.51,1,2.2,2.2,0,0,1,.54,1.53v8.54a.39.39,0,0,1-.15.32.71.71,0,0,1-.47.13h-1.74a2.13,2.13,0,0,1-1.35-.36,1.12,1.12,0,0,1-.45-.92v-7.71a1.22,1.22,0,0,0-.41-1,2.13,2.13,0,0,0-1.39-.36h-1.8v9a1.14,1.14,0,0,1-.44.92,2.15,2.15,0,0,1-1.35.36h-1.74a.71.71,0,0,1-.47-.13.39.39,0,0,1-.15-.32V180.22a.39.39,0,0,1,.15-.32.71.71,0,0,1,.47-.13Zm-1.87,2.44v10.56h1.8a2.08,2.08,0,0,0,1.37-.37,1.18,1.18,0,0,0,.43-.94v-7.94a1.17,1.17,0,0,0-.45-.94,2.07,2.07,0,0,0-1.35-.37Z"/><path class="cls-1" d="M330.11,188.78a2.13,2.13,0,0,1-1.35-.36,1.14,1.14,0,0,1-.45-.93v-4.32a1.16,1.16,0,0,0-.45-.95,2.13,2.13,0,0,0-1.35-.36,2.11,2.11,0,0,0-1.36.36,1.18,1.18,0,0,0-.44.95,12.32,12.32,0,0,0,.33,3.05,8.8,8.8,0,0,0,.88,2.27,9.7,9.7,0,0,0,1.26,1.77c.46.52.93,1.05,1.41,1.57s1,1.08,1.41,1.67a10.36,10.36,0,0,1,1.26,2.07,12.8,12.8,0,0,1,.88,2.78,18.63,18.63,0,0,1,.33,3.76,2.94,2.94,0,0,1-.42,1.56,3.6,3.6,0,0,1-1.21,1.18,6.22,6.22,0,0,1-1.89.75,10.32,10.32,0,0,1-2.44.26,8.11,8.11,0,0,1-4.39-1,3.13,3.13,0,0,1-1.57-2.75v-5.37a.44.44,0,0,1,.16-.33.74.74,0,0,1,.46-.13h1.74a2.13,2.13,0,0,1,1.35.36,1.14,1.14,0,0,1,.45.93v4.54a1.16,1.16,0,0,0,.45.95,2.75,2.75,0,0,0,2.72,0,1.17,1.17,0,0,0,.43-.95,16.72,16.72,0,0,0-.33-3.58,10.23,10.23,0,0,0-.88-2.56,9.07,9.07,0,0,0-1.26-1.88q-.69-.79-1.41-1.53c-.47-.48-.94-1-1.41-1.51a9.61,9.61,0,0,1-1.26-1.86,10.53,10.53,0,0,1-.88-2.51,16,16,0,0,1-.33-3.51,2.94,2.94,0,0,1,.42-1.56,3.7,3.7,0,0,1,1.21-1.18,6.26,6.26,0,0,1,1.88-.75,10.18,10.18,0,0,1,2.45-.26,8.11,8.11,0,0,1,4.39,1,3.11,3.11,0,0,1,1.57,2.75v5.15a.41.41,0,0,1-.16.33.74.74,0,0,1-.46.13Z"/><polygon class="cls-2" points="211.71 100.18 188.28 65.21 188.28 74.06 211.71 109.03 228.53 84.2 228.53 75.35 211.71 100.18"/><polygon class="cls-3" points="139.93 127.33 139.93 136.18 127.96 118.4 127.96 109.55 139.93 127.33"/><polygon class="cls-3" points="263.84 127.33 247.9 103.87 245.4 100.18 228.53 75.35 228.53 84.2 245.4 109.03 247.9 112.72 263.84 136.19 286.06 168.91 286.06 160.06 263.84 127.33"/><polygon class="cls-4" points="332.47 160.12 332.47 168.97 286.06 168.91 286.06 160.06 332.47 160.12"/><polygon class="cls-5" points="332.47 160.12 286.06 160.06 263.84 127.33 247.9 103.87 245.4 100.18 228.53 75.35 211.71 100.18 188.28 65.21 204.87 40.5 249.57 40.28 332.47 160.12"/><polygon class="cls-6" points="173.72 127.58 157.79 104.12 155.28 100.43 138.38 75.53 121.47 100.43 118.96 104.12 103.03 127.58 103.03 136.44 118.96 112.97 121.47 109.28 138.38 84.38 155.28 109.28 157.79 112.97 173.72 136.44 194.91 169.16 194.91 160.31 173.72 127.58"/><polygon class="cls-7" points="242.35 160.36 242.35 169.21 194.91 169.16 194.91 160.31 242.35 160.36"/><polygon class="cls-8" points="138.38 75.53 194.91 160.31 242.35 160.36 202.2 100.43 161.93 40.33 114.65 40.59 34.4 160.36 80.8 160.31 103.03 127.58 138.38 75.53"/><polygon class="cls-9" points="185.88 160.34 163.54 127.33 151.51 109.55 127.96 109.55 139.93 127.33 103.2 127.33 80.8 160.31 162.18 160.39 185.88 160.34"/><rect class="cls-10" x="34.4" y="160.34" width="151.48" height="8.85"/></svg>